<svg xmlns="http://www.w3.org/2000/svg" viewBox="0 0 873.47 1453.06"><defs><style>.cls-1{fill:#b5bdd2;stroke:#000;stroke-linecap:round;stroke-linejoin:round;stroke-width:4px;}</style></defs><g id="Camada_2" data-name="Camada 2"><g id="Camada_2-2" data-name="Camada 2"><path class="cls-1" d="M11.28,123.87a8.73,8.73,0,0,0,7-3.45l6.58-8.69c11.92-15.73,37-7.3,37,12.44v45.35c0,19.75-25.09,28.18-37,12.45l-6.58-8.69a8.73,8.73,0,0,0-7-3.45H2V413.57h9.28a8.71,8.71,0,0,0,7-3.46l6.58-8.68c11.92-15.73,37-7.3,37,12.44v45.35c0,19.74-25.09,28.18-37,12.44L18.23,463a8.71,8.71,0,0,0-7-3.45H2v244h9.28a8.71,8.71,0,0,0,7-3.46l6.58-8.68c11.92-15.73,37-7.3,37,12.44V749.2c0,19.75-25.09,28.18-37,12.45L18.23,753a8.73,8.73,0,0,0-7-3.45H2v244h9.28a8.73,8.73,0,0,0,7-3.45l6.58-8.69c11.92-15.73,37-7.3,37,12.44v45.36c0,19.74-25.09,28.17-37,12.44l-6.58-8.69a8.73,8.73,0,0,0-7-3.45H2v243.74h9.28a8.71,8.71,0,0,0,7-3.46l6.58-8.68c11.92-15.73,37-7.3,37,12.44v45.35c0,19.74-25.09,28.18-37,12.45l-6.58-8.69a8.73,8.73,0,0,0-7-3.45H2v79.6a42.27,42.27,0,0,0,42.27,42.27h79.65v-9.24a8.71,8.71,0,0,0-3.46-7l-8.68-6.58c-15.73-11.93-7.3-37,12.44-37h45.35c19.74,0,28.18,25.09,12.44,37l-8.68,6.58a8.71,8.71,0,0,0-3.45,7v9.24h244v-9.24a8.73,8.73,0,0,0-3.45-7l-8.69-6.58c-15.73-11.93-7.3-37,12.44-37h45.35c19.75,0,28.18,25.09,12.45,37l-8.69,6.58a8.73,8.73,0,0,0-3.45,7v9.24H703.59v-9.24a8.71,8.71,0,0,0-3.45-7l-8.68-6.59c-15.74-11.92-7.3-37,12.44-37h45.35c19.74,0,28.18,25.09,12.44,37l-8.68,6.59a8.71,8.71,0,0,0-3.45,7v9.24h79.65a42.27,42.27,0,0,0,42.26-42.27v-79.6h-9.24a8.73,8.73,0,0,0-7,3.45l-6.58,8.69c-11.92,15.73-37,7.29-37-12.45v-45.35c0-19.74,25.09-28.17,37-12.44l6.58,8.68a8.71,8.71,0,0,0,7,3.46h9.24V1039.49h-9.24a8.73,8.73,0,0,0-7,3.45l-6.58,8.69c-11.92,15.73-37,7.3-37-12.44V993.83c0-19.74,25.09-28.17,37-12.44l6.58,8.69a8.73,8.73,0,0,0,7,3.45h9.24v-244h-9.24a8.73,8.73,0,0,0-7,3.45l-6.58,8.69c-11.92,15.73-37,7.3-37-12.45V703.85c0-19.74,25.09-28.17,37-12.44l6.58,8.68a8.71,8.71,0,0,0,7,3.46h9.24v-244h-9.24a8.71,8.71,0,0,0-7,3.45l-6.58,8.68c-11.92,15.74-37,7.3-37-12.44V413.87c0-19.74,25.09-28.17,37-12.44l6.58,8.68a8.71,8.71,0,0,0,7,3.46h9.24V169.83h-9.24a8.73,8.73,0,0,0-7,3.45L848.7,182c-11.92,15.73-37,7.3-37-12.45V124.17c0-19.74,25.09-28.17,37-12.44l6.58,8.69a8.73,8.73,0,0,0,7,3.45h9.24V44.27A42.26,42.26,0,0,0,829.21,2H749.56v9.24a8.71,8.71,0,0,0,3.45,7l8.68,6.58c15.74,11.93,7.3,37-12.44,37H703.9c-19.74,0-28.18-25.08-12.44-37l8.68-6.58a8.71,8.71,0,0,0,3.45-7V2H459.86v9.24a8.73,8.73,0,0,0,3.45,7L472,24.77c15.73,11.93,7.3,37-12.45,37H414.2c-19.74,0-28.17-25.08-12.44-37l8.69-6.58a8.73,8.73,0,0,0,3.45-7V2h-244v9.24a8.71,8.71,0,0,0,3.45,7L182,24.77c15.74,11.93,7.3,37-12.44,37H124.22c-19.74,0-28.17-25.08-12.44-37l8.68-6.58a8.71,8.71,0,0,0,3.46-7V2H44.27A42.26,42.26,0,0,0,2,44.27v79.6Z"/></g></g></svg>