<svg width="150" height="94" viewBox="0 0 150 94" fill="none" xmlns="http://www.w3.org/2000/svg">
<path d="M0.999992 27.2501L5.4617 22.4096C6.261 23.2701 7.32674 24.1135 8.65891 24.9443C9.99108 25.7751 11.5474 26.1905 13.3278 26.1905C14.0341 26.1905 14.7235 26.0591 15.3959 25.8005C16.0683 25.5377 16.6308 25.1562 17.0748 24.6476C17.5189 24.139 17.743 23.5329 17.743 22.825C17.743 21.689 17.189 20.7947 16.0852 20.1504C14.9814 19.5062 13.2348 18.8916 10.8411 18.3066C8.51089 17.7217 6.57819 16.6917 5.04302 15.2167C3.50785 13.7416 2.74239 11.8342 2.74239 9.49876C2.74239 7.77788 3.15684 6.20111 3.98574 4.77269C4.81465 3.34428 6.05378 2.19137 7.71159 1.31397C9.3694 0.436578 11.4544 0 13.9664 0C16.0514 0 17.8065 0.271272 19.2317 0.805339C20.6569 1.34364 21.7988 1.93705 22.6573 2.58132C23.5158 3.22559 24.1121 3.75118 24.4504 4.14961L20.4497 8.57474C19.773 8.05339 18.8849 7.45998 17.7811 6.79876C16.6773 6.13753 15.3747 5.80692 13.8692 5.80692C12.888 5.80692 11.9745 6.09091 11.1329 6.65888C10.2871 7.22686 9.86844 7.91351 9.86844 8.71038C9.86844 9.75732 10.4224 10.6008 11.5262 11.2451C12.63 11.8893 14.1483 12.4277 16.081 12.86C17.5823 13.2288 19.0329 13.784 20.4285 14.5215C21.8241 15.2591 22.966 16.289 23.8541 17.6115C24.7422 18.9339 25.1863 20.6548 25.1863 22.7741C25.1863 24.6179 24.6661 26.2625 23.6215 27.7079C22.5769 29.1533 21.1686 30.2892 19.3882 31.12C17.6077 31.9508 15.6158 32.3661 13.4082 32.3661C11.3825 32.3661 9.58931 32.1203 8.02454 31.6286C6.45977 31.1369 5.09377 30.4969 3.93077 29.717C2.76353 28.9329 1.78238 28.1106 0.987305 27.2501H0.999992Z" fill="#003758"/>
<path d="M29.8423 31.5823L31.2675 0.831055H37.848L45.8537 15.2636L53.6733 0.831055H60.2961L61.7213 31.5823H54.7729L53.8975 11.4785L47.5496 23.4653H43.9633L37.2475 11.6141L36.4651 31.578H29.8423V31.5823Z" fill="#003758"/>
<path d="M64.5296 31.5823L75.982 0.831055H83.6663L94.8904 31.5823H87.2991L84.952 24.5292H74.1424L71.7952 31.5823H64.5254H64.5296ZM75.7537 19.1334H83.2984L79.5726 7.51537L75.7537 19.1334Z" fill="#003758"/>
<path d="M98.202 31.5823V0.831055H109.612C112.006 0.831055 113.998 1.26763 115.592 2.14503C117.186 3.02242 118.383 4.18805 119.178 5.65037C119.973 7.1127 120.375 8.7149 120.375 10.4697C120.375 12.4364 119.94 14.1742 119.064 15.679C118.189 17.1837 116.954 18.3832 115.359 19.2733L122.168 31.5823H114.531L108.826 20.2863H104.96V31.5823H98.1978H98.202ZM104.964 14.7083H109.244C110.534 14.7083 111.545 14.3226 112.281 13.5554C113.017 12.7882 113.384 11.8176 113.384 10.6519C113.384 9.39308 113.008 8.39276 112.255 7.65524C111.503 6.91772 110.5 6.54896 109.244 6.54896H104.964V14.7083Z" fill="#003758"/>
<path d="M133.118 31.5823V6.96435H123.179V0.831055H150V6.96435H140.108V31.5865H133.118V31.5823Z" fill="#003758"/>
<path d="M4.40039 94.0001V44.3403H22.4502C26.5609 44.3403 29.8892 45.099 32.4436 46.6122C34.9938 48.1254 36.863 50.1006 38.0514 52.5336C39.2398 54.9666 39.8361 57.5733 39.8361 60.3496C39.8361 63.8762 39.0453 66.839 37.4593 69.2465C35.8734 71.654 33.8054 73.4639 31.2552 74.6804C28.7051 75.8969 25.9435 76.503 22.9704 76.503H15.32V94.0001H4.40039ZM15.32 67.4196H21.8582C23.8881 67.4196 25.5206 66.7754 26.7597 65.4826C27.9988 64.1941 28.6163 62.5537 28.6163 60.57C28.6163 58.4846 27.9946 56.7849 26.7597 55.471C25.5206 54.157 23.8628 53.4958 21.782 53.4958H15.32V67.4196Z" fill="#003758"/>
<path d="M47.3384 94.0001V44.3403H58.554V94.0001H47.3384Z" fill="#003758"/>
<path d="M68.2134 94.0001V44.3403H102.089V54.1697H79.429V63.8507H97.0348V73.3792H79.429V84.0986H103.721V94.0001H68.2134Z" fill="#003758"/>
<path d="M111.299 94.0001V44.3403H129.721C133.582 44.3403 136.801 45.0482 139.381 46.4639C141.956 47.8796 143.885 49.7658 145.174 52.1224C146.46 54.4791 147.107 57.0732 147.107 59.9046C147.107 63.0835 146.401 65.8853 144.988 68.3182C143.576 70.7512 141.584 72.6883 139.008 74.1252L150.004 94.0043H137.672L128.461 75.7613H122.219V94.0043H111.299V94.0001ZM122.219 66.7499H129.129C131.21 66.7499 132.842 66.1311 134.031 64.8892C135.219 63.6473 135.815 62.0875 135.815 60.197C135.815 58.1625 135.206 56.5476 133.997 55.3565C132.783 54.1655 131.163 53.5678 129.129 53.5678H122.219V66.7457V66.7499Z" fill="#003758"/>
</svg>
