<svg xmlns="http://www.w3.org/2000/svg" xmlns:xlink="http://www.w3.org/1999/xlink" version="1.1" x="0px" y="0px" viewBox="0 0 71.751 106.25" enable-background="" xml:space="preserve"><path d="M69.802,9.922L48.996,0.31c-1.684-0.777-3.678-0.042-4.455,1.64c-0.776,1.683-0.043,3.676,1.64,4.455V6.404l13.874,6.411  C40.91,17.663,27.677,25.704,18.678,34.71C8.095,45.29,3.431,57.082,1.444,66.175c-1.99,9.106-1.352,15.558-1.33,15.806  c0.187,1.844,1.834,3.188,3.678,3.002c0.801-0.081,1.507-0.438,2.034-0.965c0.688-0.688,1.073-1.67,0.967-2.713l0-0.001  c0,0,0,0-0.001-0.022c-0.044-0.479-0.495-6.402,1.384-14.442c1.884-8.05,6.048-18.178,15.25-27.382  c8.112-8.105,20.193-15.574,38.43-20.174l-6.188,13.69c-0.764,1.689-0.014,3.678,1.676,4.441c1.31,0.591,2.799,0.273,3.758-0.686  c0.278-0.278,0.512-0.611,0.685-0.991l9.666-21.388C72.211,12.671,71.474,10.694,69.802,9.922z"/><text x="0" y="100" fill="#000000" font-size="5px" font-weight="bold" font-family="'Helvetica Neue', Helvetica, Arial-Unicode, Arial, Sans-serif">Created by Icon Sea</text><text x="0" y="105" fill="#000000" font-size="5px" font-weight="bold" font-family="'Helvetica Neue', Helvetica, Arial-Unicode, Arial, Sans-serif">from the Noun Project</text></svg>