<?xml version="1.0" encoding="UTF-8"?>
<svg id="Camada_2" data-name="Camada 2" xmlns="http://www.w3.org/2000/svg" viewBox="0 0 378.68 684.86">
  <defs>
    <style>
      .cls-1 {
        fill: #000;
        stroke-width: 0px;
      }

      .cls-2 {
        fill: #b5bdd2;
        stroke: #000;
        stroke-miterlimit: 10;
        stroke-width: 4px;
      }
    </style>
  </defs>
  <g id="Camada_3" data-name="Camada 3">
    <g>
      <path class="cls-2" d="M10.85,318c-11.8,11.8-11.8,30.92,0,42.71l7.92,7.92c11.8,11.8,30.92,11.8,42.71,0l34.8-34.8-50.64-50.64-34.8,34.8ZM55.73,342.37c0,10.28-8.33,18.61-18.61,18.61-10.28,0-18.61-8.33-18.61-18.61s8.33-18.61,18.61-18.61,18.61,8.33,18.61,18.61Z"/>
      <path class="cls-2" d="M333.04,283.21l-50.64,50.64,34.8,34.8c11.8,11.8,30.92,11.8,42.71,0l7.92-7.92c11.8-11.8,11.8-30.92,0-42.71l-34.8-34.8ZM341.56,323.76c10.28,0,18.61,8.33,18.61,18.61s-8.33,18.61-18.61,18.61c-10.28,0-18.61-8.33-18.61-18.61s8.33-18.61,18.61-18.61Z"/>
      <g>
        <path class="cls-2" d="M45.64,401.65l50.64-50.64-34.8-34.8c-11.8-11.8-30.92-11.8-42.71,0l-7.92,7.92c-11.8,11.8-11.8,30.92,0,42.71l34.8,34.8ZM37.12,361.1c-10.28,0-18.61-8.33-18.61-18.61s8.33-18.61,18.61-18.61c10.28,0,18.61,8.33,18.61,18.61s-8.33,18.61-18.61,18.61Z"/>
        <path class="cls-2" d="M10.85,623.37c-11.8,11.8-11.8,30.92,0,42.71l7.92,7.92c11.8,11.8,30.92,11.8,42.71,0l34.8-34.8-50.64-50.64-34.8,34.8ZM55.73,647.74c0,10.28-8.33,18.61-18.61,18.61-10.28,0-18.61-8.33-18.61-18.61s8.33-18.61,18.61-18.61,18.61,8.33,18.61,18.61Z"/>
        <path class="cls-2" d="M367.83,366.85c11.8-11.8,11.8-30.92,0-42.71l-7.92-7.92c-11.8-11.8-30.92-11.8-42.71,0l-34.8,34.8,50.64,50.64,34.8-34.8ZM322.95,342.49c0-10.28,8.33-18.61,18.61-18.61s18.61,8.33,18.61,18.61-8.33,18.61-18.61,18.61-18.61-8.33-18.61-18.61Z"/>
        <path class="cls-2" d="M333.04,588.57l-50.64,50.64,34.8,34.8c11.8,11.8,30.92,11.8,42.71,0l7.92-7.92c11.8-11.8,11.8-30.92,0-42.71l-34.8-34.8ZM341.56,629.13c10.28,0,18.61,8.33,18.61,18.61s-8.33,18.61-18.61,18.61c-10.28,0-18.61-8.33-18.61-18.61s8.33-18.61,18.61-18.61Z"/>
        <path class="cls-2" d="M329.92,466.3c-4.86,0-8.81-3.94-8.81-8.81v-23.07c0-4.86,3.94-8.81,8.81-8.81h11.63v-23.9c0-32.73-26.54-59.27-59.27-59.27h-23.84v-11.83c0-4.87-3.94-8.81-8.81-8.81h-23.07c-4.87,0-8.81,3.94-8.81,8.81v11.83h-56.71v-11.83c0-4.87-3.94-8.81-8.81-8.81h-23.07c-4.86,0-8.81,3.94-8.81,8.81v11.83h-23.84c-32.73,0-59.27,26.54-59.27,59.27v23.9h-12.33c-4.87,0-8.81,3.94-8.81,8.81v23.07c0,4.87,3.94,8.81,8.81,8.81h12.33v56.71h-12.33c-4.87,0-8.81,3.94-8.81,8.81v23.07c0,4.87,3.94,8.81,8.81,8.81h12.33v23.77c0,32.73,26.54,59.27,59.27,59.27h23.84v-11.53c0-4.87,3.94-8.81,8.81-8.81h23.07c4.86,0,8.81,3.94,8.81,8.81v11.53h56.71v-11.53c0-4.87,3.94-8.81,8.81-8.81h23.07c4.87,0,8.81,3.94,8.81,8.81v11.53h23.84c32.73,0,59.27-26.54,59.27-59.27v-23.77h-11.63c-4.86,0-8.81-3.94-8.81-8.81v-23.07c0-4.87,3.94-8.81,8.81-8.81h11.63v-56.71h-11.63Z"/>
        <rect class="cls-2" x="150.89" y="456.26" width="77.71" height="77.71" transform="translate(-294.52 279.18) rotate(-45)"/>
        <g>
          <path class="cls-1" d="M163.1,487.64l1.58-1.71c.28.3.66.6,1.13.89s1.02.44,1.65.44c.25,0,.49-.05.73-.14.24-.09.44-.23.59-.41.16-.18.24-.39.24-.64,0-.4-.19-.71-.58-.94s-1.01-.44-1.85-.65c-.82-.21-1.5-.57-2.05-1.09-.54-.52-.81-1.19-.81-2.01,0-.61.15-1.16.44-1.66s.73-.91,1.32-1.22c.58-.31,1.32-.46,2.21-.46.74,0,1.36.09,1.86.28.5.19.91.4,1.21.63.3.23.51.41.63.55l-1.41,1.56c-.24-.18-.55-.39-.94-.63-.39-.23-.85-.35-1.38-.35-.35,0-.67.1-.97.3-.3.2-.45.44-.45.72,0,.37.19.67.58.89.39.23.93.42,1.61.57.53.13,1.04.32,1.53.58.49.26.9.62,1.21,1.09.31.47.47,1.07.47,1.82,0,.65-.18,1.23-.55,1.74-.37.51-.87.91-1.49,1.2-.63.29-1.33.44-2.11.44-.71,0-1.35-.09-1.9-.26s-1.03-.4-1.45-.67c-.41-.28-.76-.57-1.04-.87Z"/>
          <path class="cls-1" d="M173.28,489.17l.5-10.83h2.32l2.83,5.08,2.76-5.08h2.34l.5,10.83h-2.45l-.31-7.08-2.24,4.22h-1.27l-2.37-4.17-.28,7.03h-2.34Z"/>
          <path class="cls-1" d="M185.53,489.17l4.04-10.83h2.71l3.96,10.83h-2.68l-.83-2.48h-3.82l-.83,2.48h-2.57ZM189.49,484.78h2.66l-1.32-4.09-1.35,4.09Z"/>
          <path class="cls-1" d="M197.42,489.17v-10.83h4.03c.84,0,1.55.15,2.11.46.56.31.99.72,1.27,1.23.28.51.42,1.08.42,1.7,0,.69-.15,1.3-.46,1.84-.31.53-.74.95-1.31,1.27l2.4,4.34h-2.7l-2.01-3.98h-1.36v3.98h-2.39ZM199.8,483.22h1.51c.45,0,.81-.14,1.07-.41.26-.27.39-.61.39-1.02,0-.44-.13-.8-.4-1.06-.27-.26-.62-.39-1.06-.39h-1.51v2.87Z"/>
          <path class="cls-1" d="M209.74,489.17v-8.67h-3.51v-2.16h9.47v2.16h-3.49v8.67h-2.47Z"/>
          <path class="cls-1" d="M164.3,511.15v-17.49h6.37c1.45,0,2.63.27,3.53.8.9.53,1.56,1.23,1.98,2.08.42.86.63,1.77.63,2.75,0,1.24-.28,2.29-.84,3.13-.56.85-1.29,1.49-2.19,1.91-.9.43-1.88.64-2.92.64h-2.7v6.16h-3.86ZM168.16,501.79h2.31c.72,0,1.29-.23,1.73-.68.44-.45.66-1.03.66-1.73,0-.73-.22-1.33-.66-1.8-.44-.46-1.02-.7-1.76-.7h-2.28v4.9Z"/>
          <path class="cls-1" d="M179.46,511.15v-17.49h3.96v17.49h-3.96Z"/>
          <path class="cls-1" d="M186.83,511.15v-17.49h11.96v3.46h-8v3.41h6.22v3.36h-6.22v3.78h8.58v3.49h-12.54Z"/>
          <path class="cls-1" d="M202.04,511.15v-17.49h6.5c1.36,0,2.5.25,3.41.75.91.5,1.59,1.16,2.05,1.99.45.83.68,1.74.68,2.74,0,1.12-.25,2.11-.75,2.96-.5.86-1.2,1.54-2.11,2.05l3.88,7h-4.35l-3.25-6.43h-2.2v6.43h-3.86ZM205.89,501.55h2.44c.73,0,1.31-.22,1.73-.66.42-.44.63-.99.63-1.65,0-.72-.21-1.29-.64-1.7-.43-.42-1-.63-1.72-.63h-2.44v4.64Z"/>
        </g>
        <circle class="cls-1" cx="58.9" cy="595" r="5.56"/>
        <circle class="cls-1" cx="69.22" cy="605.32" r="5.56"/>
        <circle class="cls-1" cx="79.54" cy="615.64" r="5.56"/>
        <circle class="cls-1" cx="61.76" cy="387.76" r="5.56"/>
        <circle class="cls-1" cx="72.08" cy="377.45" r="5.56"/>
        <circle class="cls-1" cx="302.65" cy="371.89" r="5.56"/>
        <circle class="cls-1" cx="308.21" cy="610.88" r="5.56"/>
        <circle class="cls-1" cx="312.97" cy="382.2" r="5.56"/>
        <circle class="cls-1" cx="82.39" cy="367.13" r="5.56"/>
        <circle class="cls-1" cx="89.85" cy="625.95" r="5.56"/>
      </g>
      <g>
        <path class="cls-2" d="M45.64,96.28l50.64-50.64L61.48,10.85c-11.8-11.8-30.92-11.8-42.71,0l-7.92,7.92c-11.8,11.8-11.8,30.92,0,42.71l34.8,34.8ZM37.12,55.73c-10.28,0-18.61-8.33-18.61-18.61s8.33-18.61,18.61-18.61c10.28,0,18.61,8.33,18.61,18.61s-8.33,18.61-18.61,18.61Z"/>
        <path class="cls-2" d="M367.83,61.48c11.8-11.8,11.8-30.92,0-42.71l-7.92-7.92c-11.8-11.8-30.92-11.8-42.71,0l-34.8,34.8,50.64,50.64,34.8-34.8ZM322.95,37.12c0-10.28,8.33-18.61,18.61-18.61s18.61,8.33,18.61,18.61-8.33,18.61-18.61,18.61-18.61-8.33-18.61-18.61Z"/>
        <path class="cls-2" d="M329.92,160.93c-4.86,0-8.81-3.94-8.81-8.81v-23.07c0-4.86,3.94-8.81,8.81-8.81h11.63v-23.9c0-32.73-26.54-59.27-59.27-59.27h-23.84v-11.83c0-4.87-3.94-8.81-8.81-8.81h-23.07c-4.87,0-8.81,3.94-8.81,8.81v11.83h-56.71v-11.83c0-4.87-3.94-8.81-8.81-8.81h-23.07c-4.86,0-8.81,3.94-8.81,8.81v11.83h-23.84c-32.73,0-59.27,26.54-59.27,59.27v23.9h-12.33c-4.87,0-8.81,3.94-8.81,8.81v23.07c0,4.87,3.94,8.81,8.81,8.81h12.33v56.71h-12.33c-4.87,0-8.81,3.94-8.81,8.81v23.07c0,4.87,3.94,8.81,8.81,8.81h12.33v23.77c0,32.73,26.54,59.27,59.27,59.27h23.84v-11.53c0-4.87,3.94-8.81,8.81-8.81h23.07c4.86,0,8.81,3.94,8.81,8.81v11.53h56.71v-11.53c0-4.87,3.94-8.81,8.81-8.81h23.07c4.87,0,8.81,3.94,8.81,8.81v11.53h23.84c32.73,0,59.27-26.54,59.27-59.27v-23.77h-11.63c-4.86,0-8.81-3.94-8.81-8.81v-23.07c0-4.87,3.94-8.81,8.81-8.81h11.63v-56.71h-11.63Z"/>
        <rect class="cls-2" x="150.89" y="150.89" width="77.71" height="77.71" transform="translate(-78.59 189.74) rotate(-45)"/>
        <g>
          <path class="cls-1" d="M163.1,182.27l1.58-1.71c.28.3.66.6,1.13.89s1.02.44,1.65.44c.25,0,.49-.05.73-.14.24-.09.44-.23.59-.41.16-.18.24-.39.24-.64,0-.4-.19-.71-.58-.94s-1.01-.44-1.85-.65c-.82-.21-1.5-.57-2.05-1.09-.54-.52-.81-1.19-.81-2.01,0-.61.15-1.16.44-1.66s.73-.91,1.32-1.22c.58-.31,1.32-.46,2.21-.46.74,0,1.36.09,1.86.28.5.19.91.4,1.21.63.3.23.51.41.63.55l-1.41,1.56c-.24-.18-.55-.39-.94-.63-.39-.23-.85-.35-1.38-.35-.35,0-.67.1-.97.3-.3.2-.45.44-.45.72,0,.37.19.67.58.89.39.23.93.42,1.61.57.53.13,1.04.32,1.53.58.49.26.9.62,1.21,1.09.31.47.47,1.07.47,1.82,0,.65-.18,1.23-.55,1.74-.37.51-.87.91-1.49,1.2-.63.29-1.33.44-2.11.44-.71,0-1.35-.09-1.9-.26s-1.03-.4-1.45-.67c-.41-.28-.76-.57-1.04-.87Z"/>
          <path class="cls-1" d="M173.28,183.8l.5-10.83h2.32l2.83,5.08,2.76-5.08h2.34l.5,10.83h-2.45l-.31-7.08-2.24,4.22h-1.27l-2.37-4.17-.28,7.03h-2.34Z"/>
          <path class="cls-1" d="M185.53,183.8l4.04-10.83h2.71l3.96,10.83h-2.68l-.83-2.48h-3.82l-.83,2.48h-2.57ZM189.49,179.41h2.66l-1.32-4.09-1.35,4.09Z"/>
          <path class="cls-1" d="M197.42,183.8v-10.83h4.03c.84,0,1.55.15,2.11.46.56.31.99.72,1.27,1.23.28.51.42,1.08.42,1.7,0,.69-.15,1.3-.46,1.84-.31.53-.74.95-1.31,1.27l2.4,4.34h-2.7l-2.01-3.98h-1.36v3.98h-2.39ZM199.8,177.85h1.51c.45,0,.81-.14,1.07-.41.26-.27.39-.61.39-1.02,0-.44-.13-.8-.4-1.06-.27-.26-.62-.39-1.06-.39h-1.51v2.87Z"/>
          <path class="cls-1" d="M209.74,183.8v-8.67h-3.51v-2.16h9.47v2.16h-3.49v8.67h-2.47Z"/>
          <path class="cls-1" d="M164.3,205.78v-17.49h6.37c1.45,0,2.63.27,3.53.8.9.53,1.56,1.23,1.98,2.08.42.86.63,1.77.63,2.75,0,1.24-.28,2.29-.84,3.13-.56.85-1.29,1.49-2.19,1.91-.9.43-1.88.64-2.92.64h-2.7v6.16h-3.86ZM168.16,196.42h2.31c.72,0,1.29-.23,1.73-.68.44-.45.66-1.03.66-1.73,0-.73-.22-1.33-.66-1.8-.44-.46-1.02-.7-1.76-.7h-2.28v4.9Z"/>
          <path class="cls-1" d="M179.46,205.78v-17.49h3.96v17.49h-3.96Z"/>
          <path class="cls-1" d="M186.83,205.78v-17.49h11.96v3.46h-8v3.41h6.22v3.36h-6.22v3.78h8.58v3.49h-12.54Z"/>
          <path class="cls-1" d="M202.04,205.78v-17.49h6.5c1.36,0,2.5.25,3.41.75.91.5,1.59,1.16,2.05,1.99.45.83.68,1.74.68,2.74,0,1.12-.25,2.11-.75,2.96-.5.86-1.2,1.54-2.11,2.05l3.88,7h-4.35l-3.25-6.43h-2.2v6.43h-3.86ZM205.89,196.18h2.44c.73,0,1.31-.22,1.73-.66.42-.44.63-.99.63-1.65,0-.72-.21-1.29-.64-1.7-.43-.42-1-.63-1.72-.63h-2.44v4.64Z"/>
        </g>
        <circle class="cls-1" cx="58.9" cy="289.64" r="5.56"/>
        <circle class="cls-1" cx="69.22" cy="299.95" r="5.56"/>
        <circle class="cls-1" cx="79.54" cy="310.27" r="5.56"/>
        <circle class="cls-1" cx="61.76" cy="82.39" r="5.56"/>
        <circle class="cls-1" cx="72.08" cy="72.08" r="5.56"/>
        <circle class="cls-1" cx="302.65" cy="66.52" r="5.56"/>
        <circle class="cls-1" cx="308.21" cy="305.51" r="5.56"/>
        <circle class="cls-1" cx="312.97" cy="76.84" r="5.56"/>
        <circle class="cls-1" cx="82.39" cy="61.76" r="5.56"/>
        <circle class="cls-1" cx="89.85" cy="320.58" r="5.56"/>
      </g>
    </g>
  </g>
</svg>