<svg xmlns="http://www.w3.org/2000/svg" viewBox="0 0 682.85 684.86"><defs><style>.cls-1{fill:#b5bdd2;stroke:#000;stroke-miterlimit:10;stroke-width:4px;}</style></defs><g id="Camada_2" data-name="Camada 2"><g id="Camada_3" data-name="Camada 3"><path class="cls-1" d="M315,623.37a30.22,30.22,0,0,0,0,42.72l7.92,7.92a30.22,30.22,0,0,0,42.72,0l34.8-34.8-50.64-50.64Zm44.88,24.37a18.61,18.61,0,1,1-18.61-18.61A18.61,18.61,0,0,1,359.9,647.74Z"/><path class="cls-1" d="M315,318a30.22,30.22,0,0,0,0,42.72l7.92,7.92a30.2,30.2,0,0,0,42.72,0l34.8-34.79-50.64-50.64Zm44.88,24.37a18.61,18.61,0,1,1-18.61-18.61A18.61,18.61,0,0,1,359.9,342.37Z"/><path class="cls-1" d="M349.82,401.65,400.46,351l-34.8-34.8a30.22,30.22,0,0,0-42.72,0L315,324.14a30.21,30.21,0,0,0,0,42.71Zm-8.53-40.55a18.62,18.62,0,1,1,18.61-18.61A18.61,18.61,0,0,1,341.29,361.1Z"/><path class="cls-1" d="M349.82,96.28l50.64-50.64-34.8-34.79a30.2,30.2,0,0,0-42.72,0L315,18.77a30.21,30.21,0,0,0,0,42.71Zm-8.53-40.55A18.61,18.61,0,1,1,359.9,37.12,18.61,18.61,0,0,1,341.29,55.73Z"/><path class="cls-1" d="M10.85,318a30.2,30.2,0,0,0,0,42.72l7.92,7.92a30.19,30.19,0,0,0,42.71,0l34.8-34.79L45.64,283.21Zm44.88,24.37a18.61,18.61,0,1,1-18.61-18.61A18.61,18.61,0,0,1,55.73,342.37Z"/><path class="cls-1" d="M333,283.21,282.4,333.85l34.8,34.79a30.19,30.19,0,0,0,42.71,0l7.92-7.92a30.2,30.2,0,0,0,0-42.72Zm8.52,40.55A18.61,18.61,0,1,1,323,342.37,18.61,18.61,0,0,1,341.56,323.76Z"/><path class="cls-1" d="M45.64,401.65,96.28,351l-34.8-34.8a30.21,30.21,0,0,0-42.71,0l-7.92,7.93a30.19,30.19,0,0,0,0,42.71ZM37.12,361.1a18.62,18.62,0,1,1,18.61-18.61A18.61,18.61,0,0,1,37.12,361.1Z"/><path class="cls-1" d="M10.85,623.37a30.2,30.2,0,0,0,0,42.72L18.77,674a30.21,30.21,0,0,0,42.71,0l34.8-34.8L45.64,588.57Zm44.88,24.37a18.61,18.61,0,1,1-18.61-18.61A18.61,18.61,0,0,1,55.73,647.74Z"/><path class="cls-1" d="M367.83,366.85a30.19,30.19,0,0,0,0-42.71l-7.92-7.93a30.21,30.21,0,0,0-42.71,0L282.4,351,333,401.65ZM323,342.49a18.61,18.61,0,1,1,18.61,18.61A18.62,18.62,0,0,1,323,342.49Z"/><path class="cls-1" d="M333,588.57,282.4,639.21,317.2,674a30.21,30.21,0,0,0,42.71,0l7.92-7.92a30.2,30.2,0,0,0,0-42.72Zm8.52,40.56A18.61,18.61,0,1,1,323,647.74,18.61,18.61,0,0,1,341.56,629.13Z"/><path class="cls-1" d="M329.92,466.3a8.8,8.8,0,0,1-8.81-8.81V434.42a8.8,8.8,0,0,1,8.81-8.8h11.63v-23.9a59.27,59.27,0,0,0-59.27-59.27H258.44V330.61a8.8,8.8,0,0,0-8.8-8.8H226.57a8.8,8.8,0,0,0-8.81,8.8v11.84H161.05V330.61a8.81,8.81,0,0,0-8.81-8.8H129.17a8.8,8.8,0,0,0-8.81,8.8v11.84H96.52a59.27,59.27,0,0,0-59.27,59.27v23.9H24.93a8.8,8.8,0,0,0-8.81,8.8v23.07a8.8,8.8,0,0,0,8.81,8.81H37.25V523H24.93a8.8,8.8,0,0,0-8.81,8.8v23.07a8.8,8.8,0,0,0,8.81,8.81H37.25v23.77a59.27,59.27,0,0,0,59.27,59.27h23.84V635.21a8.8,8.8,0,0,1,8.81-8.81h23.07a8.81,8.81,0,0,1,8.81,8.81v11.53h56.71V635.21a8.8,8.8,0,0,1,8.81-8.81h23.07a8.8,8.8,0,0,1,8.8,8.81v11.53h23.84a59.27,59.27,0,0,0,59.27-59.27V563.7H329.92a8.8,8.8,0,0,1-8.81-8.81V531.82a8.8,8.8,0,0,1,8.81-8.8h11.63V466.3Z"/><rect class="cls-1" x="150.89" y="456.26" width="77.71" height="77.71" transform="translate(-294.52 279.18) rotate(-45)"/><path d="M163.1,487.64l1.58-1.71a5.25,5.25,0,0,0,1.13.9,3.07,3.07,0,0,0,1.64.44,2,2,0,0,0,.73-.14,1.5,1.5,0,0,0,.6-.41,1,1,0,0,0,.23-.64,1,1,0,0,0-.58-.94,7.08,7.08,0,0,0-1.85-.65,4.46,4.46,0,0,1-2.05-1.09,2.67,2.67,0,0,1-.81-2,3.31,3.31,0,0,1,.44-1.67,3.23,3.23,0,0,1,1.31-1.22,4.83,4.83,0,0,1,2.21-.46,5.26,5.26,0,0,1,1.86.29,4.85,4.85,0,0,1,1.21.62,4.48,4.48,0,0,1,.63.55L170,481.06a10.25,10.25,0,0,0-.94-.62,2.58,2.58,0,0,0-1.38-.35,1.71,1.71,0,0,0-1,.3.85.85,0,0,0-.44.72,1,1,0,0,0,.58.89,5.61,5.61,0,0,0,1.61.57,6.63,6.63,0,0,1,1.53.59,3.17,3.17,0,0,1,1.21,1.09,3.12,3.12,0,0,1,.47,1.81,2.88,2.88,0,0,1-.55,1.74,3.71,3.71,0,0,1-1.49,1.2,4.83,4.83,0,0,1-2.11.44,6.42,6.42,0,0,1-1.9-.26,5.55,5.55,0,0,1-1.45-.67A6.21,6.21,0,0,1,163.1,487.64Z"/><path d="M173.28,489.17l.51-10.84h2.32l2.83,5.09,2.76-5.09H184l.51,10.84h-2.45l-.31-7.08-2.24,4.22h-1.27l-2.37-4.18-.28,7Z"/><path d="M185.53,489.17l4-10.84h2.71l4,10.84h-2.68l-.83-2.49h-3.82l-.83,2.49Zm4-4.39h2.66l-1.31-4.09Z"/><path d="M197.42,489.17V478.33h4a4.31,4.31,0,0,1,2.11.47,3.08,3.08,0,0,1,1.27,1.23,3.51,3.51,0,0,1,.42,1.7,3.55,3.55,0,0,1-.46,1.83,3.34,3.34,0,0,1-1.31,1.27l2.41,4.34h-2.7l-2-4H199.8v4Zm2.38-5.95h1.51a1.43,1.43,0,0,0,1.08-.4,1.47,1.47,0,0,0,.38-1,1.42,1.42,0,0,0-.39-1.05,1.47,1.47,0,0,0-1.07-.39H199.8Z"/><path d="M209.74,489.17v-8.68h-3.51v-2.16h9.47v2.16h-3.49v8.68Z"/><path d="M164.3,511.15V493.66h6.37a6.88,6.88,0,0,1,3.53.8,4.94,4.94,0,0,1,2,2.08,6.21,6.21,0,0,1,.63,2.76,5.56,5.56,0,0,1-.84,3.13,5.34,5.34,0,0,1-2.19,1.92,6.81,6.81,0,0,1-2.92.64h-2.7v6.16Zm3.86-9.36h2.31a2.32,2.32,0,0,0,1.73-.68,2.43,2.43,0,0,0,.65-1.73,2.53,2.53,0,0,0-.65-1.8,2.33,2.33,0,0,0-1.76-.7h-2.28Z"/><path d="M179.46,511.15V493.66h4v17.49Z"/><path d="M186.83,511.15V493.66h12v3.46h-8v3.41H197v3.36h-6.21v3.77h8.57v3.49Z"/><path d="M202,511.15V493.66h6.5a7,7,0,0,1,3.41.75,5,5,0,0,1,2.05,2,5.65,5.65,0,0,1,.68,2.74,5.74,5.74,0,0,1-.75,3,5.47,5.47,0,0,1-2.11,2l3.88,7h-4.35l-3.25-6.42h-2.21v6.42Zm3.85-9.6h2.44a2.2,2.2,0,0,0,2.36-2.31,2.27,2.27,0,0,0-.64-1.7,2.35,2.35,0,0,0-1.72-.63h-2.44Z"/><circle cx="58.9" cy="595" r="5.56"/><circle cx="69.22" cy="605.32" r="5.56"/><circle cx="79.54" cy="615.64" r="5.56"/><circle cx="61.76" cy="387.76" r="5.56"/><circle cx="72.08" cy="377.45" r="5.56"/><circle cx="308.21" cy="610.88" r="5.56"/><circle cx="82.39" cy="367.13" r="5.56"/><circle cx="89.85" cy="625.95" r="5.56"/><path class="cls-1" d="M45.64,96.28,96.28,45.64,61.48,10.85a30.19,30.19,0,0,0-42.71,0l-7.92,7.92a30.19,30.19,0,0,0,0,42.71ZM37.12,55.73A18.61,18.61,0,1,1,55.73,37.12,18.61,18.61,0,0,1,37.12,55.73Z"/><path class="cls-1" d="M367.83,61.48a30.19,30.19,0,0,0,0-42.71l-7.92-7.92a30.19,30.19,0,0,0-42.71,0L282.4,45.64,333,96.28ZM323,37.12a18.61,18.61,0,1,1,18.61,18.61A18.61,18.61,0,0,1,323,37.12Z"/><path class="cls-1" d="M329.92,160.93a8.8,8.8,0,0,1-8.81-8.8V129.06a8.8,8.8,0,0,1,8.81-8.81h11.63V96.35a59.28,59.28,0,0,0-59.27-59.27H258.44V25.25a8.8,8.8,0,0,0-8.8-8.81H226.57a8.8,8.8,0,0,0-8.81,8.81V37.08H161.05V25.25a8.81,8.81,0,0,0-8.81-8.81H129.17a8.8,8.8,0,0,0-8.81,8.81V37.08H96.52A59.28,59.28,0,0,0,37.25,96.35v23.9H24.93a8.8,8.8,0,0,0-8.81,8.81v23.07a8.8,8.8,0,0,0,8.81,8.8H37.25v56.72H24.93a8.8,8.8,0,0,0-8.81,8.81v23.06a8.8,8.8,0,0,0,8.81,8.81H37.25v23.78a59.28,59.28,0,0,0,59.27,59.27h23.84V329.84a8.81,8.81,0,0,1,8.81-8.81h23.07a8.82,8.82,0,0,1,8.81,8.81v11.54h56.71V329.84a8.81,8.81,0,0,1,8.81-8.81h23.07a8.81,8.81,0,0,1,8.8,8.81v11.54h23.84a59.28,59.28,0,0,0,59.27-59.27V258.33H329.92a8.8,8.8,0,0,1-8.81-8.81V226.46a8.8,8.8,0,0,1,8.81-8.81h11.63V160.93Z"/><rect class="cls-1" x="150.89" y="150.89" width="77.71" height="77.71" transform="translate(-78.59 189.74) rotate(-45)"/><path d="M163.1,182.27l1.58-1.7a5.23,5.23,0,0,0,1.13.89,3.07,3.07,0,0,0,1.64.44,2,2,0,0,0,.73-.14,1.5,1.5,0,0,0,.6-.41,1,1,0,0,0,.23-.64,1,1,0,0,0-.58-.94,7.47,7.47,0,0,0-1.85-.65,4.37,4.37,0,0,1-2.05-1.09,2.67,2.67,0,0,1-.81-2,3.31,3.31,0,0,1,.44-1.67,3.21,3.21,0,0,1,1.31-1.21,4.7,4.7,0,0,1,2.21-.47,5.26,5.26,0,0,1,1.86.29,5.21,5.21,0,0,1,1.21.62,3.86,3.86,0,0,1,.63.56L170,175.69a10.25,10.25,0,0,0-.94-.62,2.67,2.67,0,0,0-1.38-.35,1.71,1.71,0,0,0-1,.3.85.85,0,0,0-.44.72,1,1,0,0,0,.58.9,6,6,0,0,0,1.61.56,6.63,6.63,0,0,1,1.53.59,3.17,3.17,0,0,1,1.21,1.09,3.13,3.13,0,0,1,.47,1.82,2.85,2.85,0,0,1-.55,1.73,3.82,3.82,0,0,1-1.49,1.21,5,5,0,0,1-2.11.43,6.11,6.11,0,0,1-1.9-.26,5.25,5.25,0,0,1-1.45-.67A6.21,6.21,0,0,1,163.1,182.27Z"/><path d="M173.28,183.8l.51-10.83h2.32l2.83,5.08L181.7,173H184l.51,10.83h-2.45l-.31-7.08-2.24,4.22h-1.27l-2.37-4.17-.28,7Z"/><path d="M185.53,183.8l4-10.83h2.71l4,10.83h-2.68l-.83-2.49h-3.82l-.83,2.49Zm4-4.39h2.66l-1.31-4.09Z"/><path d="M197.42,183.8V173h4a4.31,4.31,0,0,1,2.11.46,3.08,3.08,0,0,1,1.27,1.23,3.51,3.51,0,0,1,.42,1.7,3.62,3.62,0,0,1-.46,1.84,3.31,3.31,0,0,1-1.31,1.26l2.41,4.34h-2.7l-2-4H199.8v4Zm2.38-6h1.51a1.43,1.43,0,0,0,1.08-.4,1.45,1.45,0,0,0,.38-1,1.43,1.43,0,0,0-.39-1.06,1.47,1.47,0,0,0-1.07-.39H199.8Z"/><path d="M209.74,183.8v-8.67h-3.51V173h9.47v2.16h-3.49v8.67Z"/><path d="M164.3,205.78V188.29h6.37a6.88,6.88,0,0,1,3.53.8,4.91,4.91,0,0,1,2,2.09,6.13,6.13,0,0,1,.63,2.75,5.54,5.54,0,0,1-.84,3.13,5.34,5.34,0,0,1-2.19,1.92,6.67,6.67,0,0,1-2.92.64h-2.7v6.16Zm3.86-9.36h2.31a2.32,2.32,0,0,0,1.73-.68,2.43,2.43,0,0,0,.65-1.73,2.53,2.53,0,0,0-.65-1.8,2.33,2.33,0,0,0-1.76-.69h-2.28Z"/><path d="M179.46,205.78V188.29h4v17.49Z"/><path d="M186.83,205.78V188.29h12v3.46h-8v3.41H197v3.36h-6.21v3.77h8.57v3.49Z"/><path d="M202,205.78V188.29h6.5A7,7,0,0,1,212,189a5,5,0,0,1,2.05,2,5.68,5.68,0,0,1,.68,2.74,5.8,5.8,0,0,1-.75,3,5.52,5.52,0,0,1-2.11,2l3.88,7h-4.35l-3.25-6.42h-2.21v6.42Zm3.85-9.6h2.44a2.26,2.26,0,0,0,1.73-.65,2.54,2.54,0,0,0,0-3.36,2.35,2.35,0,0,0-1.72-.63h-2.44Z"/><circle cx="58.9" cy="289.64" r="5.56"/><circle cx="69.22" cy="299.95" r="5.56"/><circle cx="79.54" cy="310.27" r="5.56"/><circle cx="61.76" cy="82.39" r="5.56"/><circle cx="72.08" cy="72.08" r="5.56"/><circle cx="302.65" cy="66.52" r="5.56"/><circle cx="312.97" cy="76.84" r="5.56"/><circle cx="82.39" cy="61.76" r="5.56"/><circle cx="89.85" cy="320.58" r="5.56"/><path class="cls-1" d="M637.21,283.21l-50.64,50.64,34.8,34.79a30.19,30.19,0,0,0,42.71,0l7.93-7.92A30.22,30.22,0,0,0,672,318Zm8.53,40.55a18.61,18.61,0,1,1-18.62,18.61A18.61,18.61,0,0,1,645.74,323.76Z"/><path class="cls-1" d="M672,366.85a30.21,30.21,0,0,0,0-42.71l-7.93-7.93a30.21,30.21,0,0,0-42.71,0L586.57,351l50.64,50.64Zm-44.89-24.36a18.62,18.62,0,1,1,18.62,18.61A18.62,18.62,0,0,1,627.12,342.49Z"/><path class="cls-1" d="M637.21,588.57l-50.64,50.64,34.8,34.8a30.21,30.21,0,0,0,42.71,0l7.93-7.92a30.22,30.22,0,0,0,0-42.72Zm8.53,40.56a18.61,18.61,0,1,1-18.62,18.61A18.61,18.61,0,0,1,645.74,629.13Z"/><path class="cls-1" d="M634.09,466.3a8.81,8.81,0,0,1-8.81-8.81V434.42a8.81,8.81,0,0,1,8.81-8.8h11.63v-23.9a59.26,59.26,0,0,0-59.26-59.27H562.62V330.61a8.8,8.8,0,0,0-8.81-8.8H530.74a8.81,8.81,0,0,0-8.81,8.8v11.84H465.22V330.61a8.8,8.8,0,0,0-8.81-8.8H433.34a8.81,8.81,0,0,0-8.81,8.8v11.84H400.7a59.26,59.26,0,0,0-59.27,59.27v23.9H329.1a8.8,8.8,0,0,0-8.81,8.8v23.07a8.8,8.8,0,0,0,8.81,8.81h12.33V523H329.1a8.8,8.8,0,0,0-8.81,8.8v23.07a8.8,8.8,0,0,0,8.81,8.81h12.33v23.77a59.26,59.26,0,0,0,59.27,59.27h23.83V635.21a8.81,8.81,0,0,1,8.81-8.81h23.07a8.8,8.8,0,0,1,8.81,8.81v11.53h56.71V635.21a8.81,8.81,0,0,1,8.81-8.81h23.07a8.8,8.8,0,0,1,8.81,8.81v11.53h23.84a59.26,59.26,0,0,0,59.26-59.27V563.7H634.09a8.81,8.81,0,0,1-8.81-8.81V531.82a8.81,8.81,0,0,1,8.81-8.8h11.63V466.3Z"/><rect class="cls-1" x="455.06" y="456.26" width="77.71" height="77.71" transform="translate(-205.43 494.27) rotate(-45)"/><path d="M467.28,487.64l1.57-1.71a5.51,5.51,0,0,0,1.13.9,3.08,3.08,0,0,0,1.65.44,2.06,2.06,0,0,0,.73-.14,1.46,1.46,0,0,0,.59-.41.93.93,0,0,0,.24-.64,1.05,1.05,0,0,0-.59-.94,6.94,6.94,0,0,0-1.85-.65,4.47,4.47,0,0,1-2-1.09,2.64,2.64,0,0,1-.82-2,3.31,3.31,0,0,1,.44-1.67,3.2,3.2,0,0,1,1.32-1.22,4.8,4.8,0,0,1,2.21-.46,5.34,5.34,0,0,1,1.86.29,5,5,0,0,1,1.21.62,4.48,4.48,0,0,1,.63.55l-1.41,1.56a10.59,10.59,0,0,0-.95-.62,2.58,2.58,0,0,0-1.38-.35,1.68,1.68,0,0,0-1,.3.86.86,0,0,0-.45.72,1,1,0,0,0,.59.89,5.43,5.43,0,0,0,1.6.57,6.89,6.89,0,0,1,1.54.59,3.33,3.33,0,0,1,1.21,1.09,3.2,3.2,0,0,1,.47,1.81,3,3,0,0,1-.55,1.74,3.74,3.74,0,0,1-1.5,1.2,4.83,4.83,0,0,1-2.11.44,6.47,6.47,0,0,1-1.9-.26,5.63,5.63,0,0,1-1.44-.67A5.83,5.83,0,0,1,467.28,487.64Z"/><path d="M477.46,489.17l.5-10.84h2.32l2.83,5.09,2.76-5.09h2.34l.5,10.84h-2.45l-.31-7.08-2.24,4.22h-1.27l-2.37-4.18-.27,7Z"/><path d="M489.7,489.17l4.05-10.84h2.71l4,10.84h-2.68l-.83-2.49H493.1l-.83,2.49Zm4-4.39h2.66L495,480.69Z"/><path d="M501.59,489.17V478.33h4a4.33,4.33,0,0,1,2.11.47A3.2,3.2,0,0,1,509,480a3.51,3.51,0,0,1,.42,1.7,3.56,3.56,0,0,1-.47,1.83,3.31,3.31,0,0,1-1.3,1.27l2.4,4.34h-2.69l-2-4H504v4Zm2.39-5.95h1.51a1.42,1.42,0,0,0,1.07-.4,1.44,1.44,0,0,0,.39-1,1.39,1.39,0,0,0-.4-1.05,1.44,1.44,0,0,0-1.06-.39H504Z"/><path d="M513.92,489.17v-8.68h-3.51v-2.16h9.47v2.16h-3.5v8.68Z"/><path d="M468.48,511.15V493.66h6.37a6.91,6.91,0,0,1,3.53.8,4.94,4.94,0,0,1,2,2.08,6.21,6.21,0,0,1,.63,2.76,5.56,5.56,0,0,1-.84,3.13,5.34,5.34,0,0,1-2.19,1.92A6.86,6.86,0,0,1,475,505h-2.7v6.16Zm3.85-9.36h2.31a2.3,2.3,0,0,0,1.73-.68,2.39,2.39,0,0,0,.66-1.73,2.5,2.5,0,0,0-.66-1.8,2.32,2.32,0,0,0-1.76-.7h-2.28Z"/><path d="M483.63,511.15V493.66h4v17.49Z"/><path d="M491,511.15V493.66h12v3.46h-8v3.41h6.22v3.36H495v3.77h8.58v3.49Z"/><path d="M506.21,511.15V493.66h6.51a7,7,0,0,1,3.41.75,5,5,0,0,1,2,2,5.54,5.54,0,0,1,.68,2.74,5.83,5.83,0,0,1-.74,3,5.5,5.5,0,0,1-2.12,2l3.89,7h-4.36l-3.25-6.42h-2.2v6.42Zm3.86-9.6h2.44a2.2,2.2,0,0,0,2.36-2.31,2.28,2.28,0,0,0-.65-1.7,2.33,2.33,0,0,0-1.71-.63h-2.44Z"/><circle cx="363.08" cy="595" r="5.56"/><circle cx="373.39" cy="605.32" r="5.56"/><circle cx="383.71" cy="615.64" r="5.56"/><circle cx="606.83" cy="371.89" r="5.56"/><circle cx="612.38" cy="610.88" r="5.56"/><circle cx="617.14" cy="382.2" r="5.56"/><circle cx="394.03" cy="625.95" r="5.56"/><path class="cls-1" d="M672,61.48a30.21,30.21,0,0,0,0-42.71l-7.93-7.92a30.19,30.19,0,0,0-42.71,0l-34.8,34.79,50.64,50.64ZM627.12,37.12a18.62,18.62,0,1,1,18.62,18.61A18.62,18.62,0,0,1,627.12,37.12Z"/><path class="cls-1" d="M634.09,160.93a8.81,8.81,0,0,1-8.81-8.8V129.06a8.81,8.81,0,0,1,8.81-8.81h11.63V96.35a59.27,59.27,0,0,0-59.26-59.27H562.62V25.25a8.8,8.8,0,0,0-8.81-8.81H530.74a8.81,8.81,0,0,0-8.81,8.81V37.08H465.22V25.25a8.8,8.8,0,0,0-8.81-8.81H433.34a8.81,8.81,0,0,0-8.81,8.81V37.08H400.7a59.27,59.27,0,0,0-59.27,59.27v23.9H329.1a8.8,8.8,0,0,0-8.81,8.81v23.07a8.8,8.8,0,0,0,8.81,8.8h12.33v56.72H329.1a8.8,8.8,0,0,0-8.81,8.81v23.06a8.8,8.8,0,0,0,8.81,8.81h12.33v23.78a59.27,59.27,0,0,0,59.27,59.27h23.83V329.84a8.82,8.82,0,0,1,8.81-8.81h23.07a8.81,8.81,0,0,1,8.81,8.81v11.54h56.71V329.84a8.82,8.82,0,0,1,8.81-8.81h23.07a8.81,8.81,0,0,1,8.81,8.81v11.54h23.84a59.27,59.27,0,0,0,59.26-59.27V258.33H634.09a8.81,8.81,0,0,1-8.81-8.81V226.46a8.81,8.81,0,0,1,8.81-8.81h11.63V160.93Z"/><rect class="cls-1" x="455.06" y="150.89" width="77.71" height="77.71" transform="translate(10.5 404.83) rotate(-45)"/><path d="M467.28,182.27l1.57-1.7a5.49,5.49,0,0,0,1.13.89,3.08,3.08,0,0,0,1.65.44,2.06,2.06,0,0,0,.73-.14,1.46,1.46,0,0,0,.59-.41.91.91,0,0,0,.24-.64,1.05,1.05,0,0,0-.59-.94,7.31,7.31,0,0,0-1.85-.65,4.38,4.38,0,0,1-2-1.09,2.64,2.64,0,0,1-.82-2,3.31,3.31,0,0,1,.44-1.67,3.18,3.18,0,0,1,1.32-1.21,4.67,4.67,0,0,1,2.21-.47,5.34,5.34,0,0,1,1.86.29,5.42,5.42,0,0,1,1.21.62,3.86,3.86,0,0,1,.63.56l-1.41,1.55a10.59,10.59,0,0,0-.95-.62,2.67,2.67,0,0,0-1.38-.35,1.68,1.68,0,0,0-1,.3.86.86,0,0,0-.45.72,1,1,0,0,0,.59.9,5.75,5.75,0,0,0,1.6.56,6.89,6.89,0,0,1,1.54.59,3.33,3.33,0,0,1,1.21,1.09,3.21,3.21,0,0,1,.47,1.82,2.92,2.92,0,0,1-.55,1.73,3.85,3.85,0,0,1-1.5,1.21,5,5,0,0,1-2.11.43,6.15,6.15,0,0,1-1.9-.26,5.32,5.32,0,0,1-1.44-.67A5.83,5.83,0,0,1,467.28,182.27Z"/><path d="M477.46,183.8,478,173h2.32l2.83,5.08,2.76-5.08h2.34l.5,10.83h-2.45l-.31-7.08-2.24,4.22h-1.27l-2.37-4.17-.27,7Z"/><path d="M489.7,183.8,493.75,173h2.71l4,10.83h-2.68l-.83-2.49H493.1l-.83,2.49Zm4-4.39h2.66L495,175.32Z"/><path d="M501.59,183.8V173h4a4.33,4.33,0,0,1,2.11.46,3.2,3.2,0,0,1,1.27,1.23,3.51,3.51,0,0,1,.42,1.7,3.62,3.62,0,0,1-.47,1.84,3.29,3.29,0,0,1-1.3,1.26l2.4,4.34h-2.69l-2-4H504v4Zm2.39-6h1.51a1.36,1.36,0,0,0,1.46-1.42,1.39,1.39,0,0,0-.4-1.06,1.44,1.44,0,0,0-1.06-.39H504Z"/><path d="M513.92,183.8v-8.67h-3.51V173h9.47v2.16h-3.5v8.67Z"/><path d="M468.48,205.78V188.29h6.37a6.91,6.91,0,0,1,3.53.8,4.91,4.91,0,0,1,2,2.09,6.13,6.13,0,0,1,.63,2.75,5.54,5.54,0,0,1-.84,3.13A5.34,5.34,0,0,1,478,199a6.72,6.72,0,0,1-2.93.64h-2.7v6.16Zm3.85-9.36h2.31a2.3,2.3,0,0,0,1.73-.68A2.39,2.39,0,0,0,477,194a2.5,2.5,0,0,0-.66-1.8,2.31,2.31,0,0,0-1.76-.69h-2.28Z"/><path d="M483.63,205.78V188.29h4v17.49Z"/><path d="M491,205.78V188.29h12v3.46h-8v3.41h6.22v3.36H495v3.77h8.58v3.49Z"/><path d="M506.21,205.78V188.29h6.51a7,7,0,0,1,3.41.75,5,5,0,0,1,2,2,5.57,5.57,0,0,1,.68,2.74,5.9,5.9,0,0,1-.74,3,5.55,5.55,0,0,1-2.12,2l3.89,7h-4.36l-3.25-6.42h-2.2v6.42Zm3.86-9.6h2.44a2.38,2.38,0,0,0,1.71-4,2.33,2.33,0,0,0-1.71-.63h-2.44Z"/><circle cx="365.94" cy="82.39" r="5.56"/><circle cx="376.25" cy="72.08" r="5.56"/><circle cx="606.83" cy="66.52" r="5.56"/><circle cx="612.38" cy="305.51" r="5.56"/><circle cx="617.14" cy="76.84" r="5.56"/><circle cx="386.57" cy="61.76" r="5.56"/><circle class="cls-1" cx="341.29" cy="342.45" r="50.52"/></g></g></svg>