<svg xmlns="http://www.w3.org/2000/svg" viewBox="0 0 378.68 379.49"><defs><style>.cls-1{fill:#b5bdd2;stroke:#000;stroke-miterlimit:10;stroke-width:4px;}</style></defs><g id="Camada_2" data-name="Camada 2"><g id="Camada_3" data-name="Camada 3"><path class="cls-1" d="M45.64,96.28,96.28,45.64,61.48,10.85a30.19,30.19,0,0,0-42.71,0l-7.92,7.92a30.19,30.19,0,0,0,0,42.71ZM37.12,55.73A18.61,18.61,0,1,1,55.73,37.12,18.61,18.61,0,0,1,37.12,55.73Z"/><path class="cls-1" d="M10.85,318a30.2,30.2,0,0,0,0,42.72l7.92,7.92a30.19,30.19,0,0,0,42.71,0l34.8-34.79L45.64,283.21Zm44.88,24.37a18.61,18.61,0,1,1-18.61-18.61A18.61,18.61,0,0,1,55.73,342.37Z"/><path class="cls-1" d="M367.83,61.48a30.19,30.19,0,0,0,0-42.71l-7.92-7.92a30.19,30.19,0,0,0-42.71,0L282.4,45.64,333,96.28ZM323,37.12a18.61,18.61,0,1,1,18.61,18.61A18.61,18.61,0,0,1,323,37.12Z"/><path class="cls-1" d="M333,283.21,282.4,333.85l34.8,34.79a30.19,30.19,0,0,0,42.71,0l7.92-7.92a30.2,30.2,0,0,0,0-42.72Zm8.52,40.55A18.61,18.61,0,1,1,323,342.37,18.61,18.61,0,0,1,341.56,323.76Z"/><path class="cls-1" d="M329.92,160.93a8.8,8.8,0,0,1-8.81-8.8V129.06a8.8,8.8,0,0,1,8.81-8.81h11.63V96.35a59.28,59.28,0,0,0-59.27-59.27H258.44V25.25a8.8,8.8,0,0,0-8.8-8.81H226.57a8.8,8.8,0,0,0-8.81,8.81V37.08H161.05V25.25a8.81,8.81,0,0,0-8.81-8.81H129.17a8.8,8.8,0,0,0-8.81,8.81V37.08H96.52A59.28,59.28,0,0,0,37.25,96.35v23.9H24.93a8.8,8.8,0,0,0-8.81,8.81v23.07a8.8,8.8,0,0,0,8.81,8.8H37.25v56.72H24.93a8.8,8.8,0,0,0-8.81,8.81v23.06a8.8,8.8,0,0,0,8.81,8.81H37.25v23.78a59.28,59.28,0,0,0,59.27,59.27h23.84V329.84a8.81,8.81,0,0,1,8.81-8.81h23.07a8.82,8.82,0,0,1,8.81,8.81v11.54h56.71V329.84a8.81,8.81,0,0,1,8.81-8.81h23.07a8.81,8.81,0,0,1,8.8,8.81v11.54h23.84a59.28,59.28,0,0,0,59.27-59.27V258.33H329.92a8.8,8.8,0,0,1-8.81-8.81V226.46a8.8,8.8,0,0,1,8.81-8.81h11.63V160.93Z"/><rect class="cls-1" x="150.89" y="150.89" width="77.71" height="77.71" transform="translate(-78.59 189.74) rotate(-45)"/><path d="M163.1,182.27l1.58-1.7a5.23,5.23,0,0,0,1.13.89,3.07,3.07,0,0,0,1.64.44,2,2,0,0,0,.73-.14,1.5,1.5,0,0,0,.6-.41,1,1,0,0,0,.23-.64,1,1,0,0,0-.58-.94,7.47,7.47,0,0,0-1.85-.65,4.37,4.37,0,0,1-2.05-1.09,2.67,2.67,0,0,1-.81-2,3.31,3.31,0,0,1,.44-1.67,3.21,3.21,0,0,1,1.31-1.21,4.7,4.7,0,0,1,2.21-.47,5.26,5.26,0,0,1,1.86.29,5.21,5.21,0,0,1,1.21.62,3.86,3.86,0,0,1,.63.56L170,175.69a10.25,10.25,0,0,0-.94-.62,2.67,2.67,0,0,0-1.38-.35,1.71,1.71,0,0,0-1,.3.85.85,0,0,0-.44.72,1,1,0,0,0,.58.9,6,6,0,0,0,1.61.56,6.63,6.63,0,0,1,1.53.59,3.17,3.17,0,0,1,1.21,1.09,3.13,3.13,0,0,1,.47,1.82,2.85,2.85,0,0,1-.55,1.73,3.82,3.82,0,0,1-1.49,1.21,5,5,0,0,1-2.11.43,6.11,6.11,0,0,1-1.9-.26,5.25,5.25,0,0,1-1.45-.67A6.21,6.21,0,0,1,163.1,182.27Z"/><path d="M173.28,183.8l.51-10.83h2.32l2.83,5.08L181.7,173H184l.51,10.83h-2.45l-.31-7.08-2.24,4.22h-1.27l-2.37-4.17-.28,7Z"/><path d="M185.53,183.8l4-10.83h2.71l4,10.83h-2.68l-.83-2.49h-3.82l-.83,2.49Zm4-4.39h2.66l-1.31-4.09Z"/><path d="M197.42,183.8V173h4a4.31,4.31,0,0,1,2.11.46,3.08,3.08,0,0,1,1.27,1.23,3.51,3.51,0,0,1,.42,1.7,3.62,3.62,0,0,1-.46,1.84,3.31,3.31,0,0,1-1.31,1.26l2.41,4.34h-2.7l-2-4H199.8v4Zm2.38-6h1.51a1.43,1.43,0,0,0,1.08-.4,1.45,1.45,0,0,0,.38-1,1.43,1.43,0,0,0-.39-1.06,1.47,1.47,0,0,0-1.07-.39H199.8Z"/><path d="M209.74,183.8v-8.67h-3.51V173h9.47v2.16h-3.49v8.67Z"/><path d="M164.3,205.78V188.29h6.37a6.88,6.88,0,0,1,3.53.8,4.91,4.91,0,0,1,2,2.09,6.13,6.13,0,0,1,.63,2.75,5.54,5.54,0,0,1-.84,3.13,5.34,5.34,0,0,1-2.19,1.92,6.67,6.67,0,0,1-2.92.64h-2.7v6.16Zm3.86-9.36h2.31a2.32,2.32,0,0,0,1.73-.68,2.43,2.43,0,0,0,.65-1.73,2.53,2.53,0,0,0-.65-1.8,2.33,2.33,0,0,0-1.76-.69h-2.28Z"/><path d="M179.46,205.78V188.29h4v17.49Z"/><path d="M186.83,205.78V188.29h12v3.46h-8v3.41H197v3.36h-6.21v3.77h8.57v3.49Z"/><path d="M202,205.78V188.29h6.5A7,7,0,0,1,212,189a5,5,0,0,1,2.05,2,5.68,5.68,0,0,1,.68,2.74,5.8,5.8,0,0,1-.75,3,5.52,5.52,0,0,1-2.11,2l3.88,7h-4.35l-3.25-6.42h-2.21v6.42Zm3.85-9.6h2.44a2.26,2.26,0,0,0,1.73-.65,2.54,2.54,0,0,0,0-3.36,2.35,2.35,0,0,0-1.72-.63h-2.44Z"/><circle cx="58.9" cy="289.64" r="5.56"/><circle cx="69.22" cy="299.95" r="5.56"/><circle cx="79.54" cy="310.27" r="5.56"/><circle cx="61.76" cy="82.39" r="5.56"/><circle cx="72.08" cy="72.08" r="5.56"/><circle cx="302.65" cy="66.52" r="5.56"/><circle cx="308.21" cy="305.51" r="5.56"/><circle cx="312.97" cy="76.84" r="5.56"/><circle cx="82.39" cy="61.76" r="5.56"/><circle cx="89.85" cy="320.58" r="5.56"/></g></g></svg>